<svg xmlns="http://www.w3.org/2000/svg" viewBox="0 0 512 512" width="100" height="100">
  <path fill="#94a3b8" d="M400 192c-5.3 0-10.5.4-15.5 1.1C371.2 135 318.5 96 256 96c-51.1 0-95.5 25.4-122.2 64.4C128.9 160.1 122.5 160 116 160c-64.1 0-116 51.9-116 116s51.9 116 116 116h284c57.4 0 104-46.6 104-104s-46.6-104-104-104z"/>
  
  <g fill="#3b82f6">
    <rect x="160" y="416" width="16" height="48" rx="8" />
    <rect x="248" y="448" width="16" height="48" rx="8" />
    <rect x="336" y="416" width="16" height="48" rx="8" />
  </g>
</svg>
